<svg width="29" height="33" viewBox="0 0 29 33" fill="none" xmlns="http://www.w3.org/2000/svg">
<path d="M25.4475 0.5C27.3225 0.5 28.8325 2.016 28.9215 3.802V32.5L25.3535 29.469L23.3955 27.688L21.2545 25.823L22.1455 28.761H3.43154C1.56154 28.761 0.0465393 27.344 0.0465393 25.459V3.808C0.0465393 2.022 1.56254 0.506 3.43754 0.506H25.4375L25.4475 0.5ZM17.2905 8.078H17.2485L16.9775 8.344C19.7435 9.146 21.0815 10.396 21.0815 10.396C19.3005 9.505 17.6905 9.057 16.0865 8.875C14.9305 8.698 13.7685 8.792 12.7895 8.875H12.5185C11.8935 8.875 10.5605 9.146 8.77354 9.859C8.15354 10.13 7.79454 10.307 7.79454 10.307C7.79454 10.307 9.12754 8.968 12.0755 8.255L11.8935 8.078C11.8935 8.078 9.66454 7.989 7.25854 9.771C7.25854 9.771 4.85254 13.964 4.85254 19.13C4.85254 19.13 6.18554 21.448 9.84254 21.536C9.84254 21.536 10.3785 20.828 10.9155 20.203C8.86354 19.578 8.06154 18.328 8.06154 18.328C8.06154 18.328 8.24354 18.417 8.50954 18.594H8.58754C8.62954 18.594 8.65054 18.615 8.67054 18.636V18.646C8.69154 18.667 8.71254 18.682 8.74854 18.682C9.19154 18.864 9.62854 19.041 9.98854 19.218C10.6135 19.484 11.4105 19.754 12.3895 19.932C13.6295 20.114 15.0505 20.198 16.6705 19.932C17.4675 19.75 18.2695 19.578 19.0715 19.218C19.5875 18.952 20.2275 18.687 20.9305 18.234C20.9305 18.234 20.1335 19.484 17.9925 20.109C18.4305 20.729 19.0495 21.442 19.0495 21.442C22.7105 21.359 24.1325 19.041 24.2105 19.14C24.2105 13.979 21.7885 9.781 21.7885 9.781C19.6115 8.161 17.5695 8.099 17.2105 8.099L17.2835 8.073L17.2905 8.078ZM17.5145 13.964C18.4525 13.964 19.2075 14.761 19.2075 15.74C19.2075 16.73 18.4475 17.526 17.5145 17.526C16.5765 17.526 15.8215 16.729 15.8215 15.75C15.8215 14.76 16.5815 13.964 17.5145 13.964ZM11.4575 13.964C12.3895 13.964 13.1455 14.761 13.1455 15.74C13.1455 16.73 12.3855 17.526 11.4525 17.526C10.5145 17.526 9.75454 16.729 9.75454 15.75C9.75454 14.76 10.5145 13.964 11.4525 13.964H11.4575Z" fill="#006CD0"/>
</svg>
