<svg width="44" height="65" viewBox="0 0 44 65" fill="none" xmlns="http://www.w3.org/2000/svg">
<g clip-path="url(#clip0)">
<path d="M11.3333 64.5C17.2213 64.5 22 59.7213 22 53.8333V43.1666H11.3333C5.44529 43.1666 0.666626 47.9453 0.666626 53.8333C0.666626 59.7213 5.44529 64.5 11.3333 64.5Z" fill="#0ACF83"/>
<path d="M0.666626 32.5C0.666626 26.612 5.44529 21.8334 11.3333 21.8334H22V43.1667H11.3333C5.44529 43.1667 0.666626 38.388 0.666626 32.5Z" fill="#A259FF"/>
<path d="M0.666626 11.1667C0.666626 5.27867 5.44529 0.5 11.3333 0.5H22V21.8333H11.3333C5.44529 21.8333 0.666626 17.0547 0.666626 11.1667Z" fill="#F24E1E"/>
<path d="M22 0.5H32.6667C38.5547 0.5 43.3333 5.27867 43.3333 11.1667C43.3333 17.0547 38.5547 21.8333 32.6667 21.8333H22V0.5Z" fill="#FF7262"/>
<path d="M43.3333 32.5C43.3333 38.388 38.5547 43.1667 32.6667 43.1667C26.7787 43.1667 22 38.388 22 32.5C22 26.612 26.7787 21.8334 32.6667 21.8334C38.5547 21.8334 43.3333 26.612 43.3333 32.5Z" fill="#1ABCFE"/>
</g>
<defs>
<clipPath id="clip0">
<rect width="42.6667" height="64" fill="white" transform="translate(0.666626 0.5)"/>
</clipPath>
</defs>
</svg>
