<svg width="64" height="65" viewBox="0 0 64 65" fill="none" xmlns="http://www.w3.org/2000/svg">
<g clip-path="url(#clip0)">
<path d="M61.9427 29.6881L34.3776 2.12482C34.0001 1.7472 33.5519 1.44765 33.0586 1.24328C32.5653 1.03891 32.0366 0.933716 31.5027 0.933716C30.9687 0.933716 30.44 1.03891 29.9467 1.24328C29.4534 1.44765 29.0052 1.7472 28.6277 2.12482L22.9039 7.84927L30.1649 15.1097C31.0184 14.8195 31.9361 14.774 32.8141 14.9786C33.6921 15.1831 34.4953 15.6295 35.1326 16.267C35.7734 16.9087 36.2207 17.7176 36.4236 18.6013C36.6265 19.4851 36.5767 20.4082 36.2799 21.265L43.2766 28.2629C44.9696 27.6798 46.9234 28.0573 48.2751 29.4113C48.7245 29.8605 49.081 30.3937 49.3242 30.9807C49.5675 31.5676 49.6927 32.1967 49.6927 32.8321C49.6927 33.4674 49.5675 34.0965 49.3242 34.6835C49.081 35.2704 48.7245 35.8037 48.2751 36.2528C47.4845 37.0442 46.444 37.5372 45.3308 37.6477C44.2176 37.7583 43.1004 37.4797 42.1695 36.8593C41.2387 36.2389 40.5515 35.315 40.2251 34.245C39.8988 33.175 39.9533 32.0249 40.3794 30.9906L33.8538 24.465L33.8532 41.6383C34.3263 41.8722 34.7583 42.1812 35.1326 42.5533C35.582 43.0025 35.9384 43.5359 36.1816 44.1229C36.4248 44.71 36.55 45.3392 36.55 45.9746C36.55 46.61 36.4248 47.2392 36.1816 47.8263C35.9384 48.4133 35.582 48.9467 35.1326 49.3959C33.2422 51.2863 30.1785 51.2863 28.2911 49.3959C27.7272 48.8325 27.3113 48.1384 27.0804 47.3755C26.8494 46.6125 26.8106 45.8044 26.9673 45.0228C27.1239 44.2412 27.4713 43.5104 27.9785 42.8955C28.4857 42.2805 29.137 41.8004 29.8745 41.4979V24.1645C29.2813 23.9223 28.7428 23.5631 28.2911 23.1085C26.8594 21.6786 26.5151 19.5779 27.2487 17.8196L20.0914 10.6611L1.19126 29.5601C0.813586 29.9377 0.513997 30.3861 0.309599 30.8795C0.105202 31.373 0 31.9018 0 32.4359C0 32.97 0.105202 33.4989 0.309599 33.9923C0.513997 34.4858 0.813586 34.9341 1.19126 35.3118L28.7563 62.8756C29.5189 63.638 30.553 64.0663 31.6313 64.0663C32.7095 64.0663 33.7437 63.638 34.5062 62.8756L61.9427 35.4404C62.7052 34.6774 63.1335 33.6429 63.1335 32.5642C63.1335 31.4856 62.7052 30.451 61.9427 29.6881Z" fill="#DE4C36"/>
</g>
<defs>
<clipPath id="clip0">
<rect width="63.1335" height="63.1325" fill="white" transform="translate(0 0.933716)"/>
</clipPath>
</defs>
</svg>
