<svg width="29" height="29" viewBox="0 0 29 29" fill="none" xmlns="http://www.w3.org/2000/svg">
<path fill-rule="evenodd" clip-rule="evenodd" d="M13.9981 0.844444C10.6744 0.844891 7.45928 2.02782 4.92784 4.18164C2.3964 6.33545 0.713812 9.31964 0.181052 12.6004C-0.351708 15.8811 0.300121 19.2444 2.01994 22.0886C3.73975 24.9327 6.41536 27.0723 9.56815 28.1244C10.2681 28.2544 10.5681 27.8244 10.5681 27.4544V25.0744C6.67815 25.9144 5.85815 23.1944 5.85815 23.1944C5.5846 22.3373 5.00887 21.6087 4.23815 21.1444C2.96815 20.2844 4.33815 20.2944 4.33815 20.2944C4.78175 20.3571 5.20517 20.5203 5.57606 20.7716C5.94695 21.0229 6.2555 21.3557 6.47815 21.7444C6.86549 22.4392 7.51288 22.9516 8.27798 23.1692C9.04308 23.3867 9.86324 23.2915 10.5581 22.9044C10.6146 22.1949 10.9274 21.5302 11.4381 21.0344C8.33815 20.6744 5.06815 19.4744 5.06815 14.1144C5.04547 12.7223 5.56137 11.3753 6.50815 10.3544C6.07961 9.14864 6.12971 7.82442 6.64815 6.65444C6.64815 6.65444 7.81815 6.27444 10.4981 8.08444C12.7896 7.45939 15.2067 7.45939 17.4981 8.08444C20.1681 6.27444 21.3381 6.65444 21.3381 6.65444C21.8566 7.82442 21.9067 9.14864 21.4781 10.3544C22.4249 11.3753 22.9408 12.7223 22.9181 14.1144C22.9181 19.4944 19.6481 20.6744 16.5281 21.0244C16.8624 21.3632 17.1201 21.7697 17.284 22.2164C17.4478 22.6632 17.5141 23.1399 17.4781 23.6144V27.4544C17.4781 27.9144 17.7281 28.2644 18.4781 28.1244C21.6351 27.071 24.3135 24.9273 26.033 22.0779C27.7525 19.2285 28.4008 15.8597 27.8615 12.5756C27.3221 9.29156 25.6305 6.30702 23.09 4.15721C20.5495 2.0074 17.3262 0.832947 13.9981 0.844444Z" fill="white"/>
</svg>
