<svg width="64" height="62" viewBox="0 0 64 62" fill="none" xmlns="http://www.w3.org/2000/svg">
<path d="M11.8041 52.402L7.31006 2H56.6901L52.1901 52.394L31.9701 58L11.8041 52.402Z" fill="#E44F26"/>
<path d="M32 53.716L48.34 49.186L52.184 6.12195H32V53.716Z" fill="#F1662A"/>
<path d="M32 24.814H23.82L23.256 18.484H32V12.302H16.5L16.648 13.962L18.166 30.996H32V24.814Z" fill="#EBEBEB"/>
<path d="M32 40.868L31.972 40.876L25.088 39.018L24.648 34.088H18.442L19.308 43.792L31.972 47.308L32 47.3V40.868Z" fill="#EBEBEB"/>
<path d="M31.978 24.814V30.996H39.59L38.874 39.014L31.978 40.874V47.306L44.652 43.792L44.744 42.748L46.196 26.474L46.348 24.814H31.978Z" fill="white"/>
<path d="M31.978 12.302V18.484H46.91L47.034 17.096L47.316 13.962L47.464 12.302H31.978Z" fill="white"/>
</svg>
