<svg width="29" height="64" viewBox="0 0 29 64" fill="none" xmlns="http://www.w3.org/2000/svg">
<path fill-rule="evenodd" clip-rule="evenodd" d="M15.9567 64L14.2531 63.4177C14.2531 63.4177 14.4611 54.7324 11.3438 54.1091C9.26641 51.6985 11.6771 -48.1245 19.1573 53.7763C19.1573 53.7763 16.5804 55.0643 16.1233 57.2674C15.6243 59.4286 15.9567 64 15.9567 64Z" fill="white"/>
<path fill-rule="evenodd" clip-rule="evenodd" d="M15.9567 64L14.2531 63.4177C14.2531 63.4177 14.4611 54.7324 11.3438 54.1091C9.26641 51.6985 11.6771 -48.1245 19.1573 53.7763C19.1573 53.7763 16.5804 55.0643 16.1233 57.2674C15.6243 59.4286 15.9567 64 15.9567 64Z" fill="#A6A385"/>
<path fill-rule="evenodd" clip-rule="evenodd" d="M16.8713 55.6052C16.8713 55.6052 31.7912 45.7971 28.2997 25.3917C24.9338 10.556 16.9961 5.69368 16.1233 3.82341C15.1677 2.49355 14.2531 0.166626 14.2531 0.166626L14.8768 41.4333C14.8768 41.4752 13.5883 54.0672 16.8718 55.6056" fill="white"/>
<path fill-rule="evenodd" clip-rule="evenodd" d="M16.8713 55.6052C16.8713 55.6052 31.7912 45.7971 28.2997 25.3917C24.9338 10.556 16.9961 5.69368 16.1233 3.82341C15.1677 2.49355 14.2531 0.166626 14.2531 0.166626L14.8768 41.4333C14.8768 41.4752 13.5883 54.0672 16.8718 55.6056" fill="#499D4A"/>
<path fill-rule="evenodd" clip-rule="evenodd" d="M13.3808 56.1451C13.3808 56.1451 -0.624898 46.5866 0.206434 29.7559C0.995885 12.9248 10.8868 4.65474 12.7985 3.1587C14.0455 1.82884 14.0869 1.32986 14.1702 0C15.043 1.87027 14.8768 27.969 15.0011 31.0439C15.3749 42.8879 14.3364 53.9015 13.3808 56.1451Z" fill="white"/>
<path fill-rule="evenodd" clip-rule="evenodd" d="M13.3808 56.1451C13.3808 56.1451 -0.624898 46.5866 0.206434 29.7559C0.995885 12.9248 10.8868 4.65474 12.7985 3.1587C14.0455 1.82884 14.0869 1.32986 14.1702 0C15.043 1.87027 14.8768 27.969 15.0011 31.0439C15.3749 42.8879 14.3364 53.9015 13.3808 56.1451Z" fill="#58AA50"/>
</svg>
