<svg width="66" height="65" viewBox="0 0 66 65" fill="none" xmlns="http://www.w3.org/2000/svg">
<path d="M60.3392 49.8237C56.8045 49.7355 54.0649 50.0891 51.7673 51.061C51.1044 51.3259 50.0439 51.3261 49.9555 52.1658C50.309 52.5193 50.3532 53.0938 50.6625 53.5796C51.1933 54.4632 52.1206 55.6563 52.9602 56.2752C53.8879 56.982 54.8162 57.6888 55.7879 58.3075C57.5113 59.368 59.4557 59.9865 61.1347 61.047C62.1071 61.6652 63.0785 62.4611 64.0507 63.1237C64.5368 63.4767 64.8459 64.0517 65.4648 64.2724V64.1401C65.1552 63.7421 65.0668 63.1679 64.7578 62.726C64.3164 62.2841 63.874 61.8864 63.4321 61.4445C62.1508 59.7216 60.5602 58.2191 58.837 56.982C57.4232 56.0098 54.3298 54.6844 53.7556 53.0493C53.7556 53.0493 53.7112 53.0054 53.6672 52.9612C54.6392 52.8728 55.7879 52.5193 56.7161 52.2541C58.2183 51.8562 59.588 51.9448 61.1347 51.5471C61.8414 51.3703 62.5485 51.1494 63.2553 50.9284V50.531C62.4604 49.7355 61.8859 48.6752 61.0463 47.924C58.7928 45.9793 56.3181 44.0797 53.7556 42.4891C52.3857 41.6053 50.6181 41.0308 49.16 40.2798C48.6303 40.0144 47.7462 39.8821 47.4371 39.4402C46.6414 38.4682 46.1995 37.187 45.6253 36.038C44.3443 33.6075 43.1067 30.9124 42.002 28.3499C41.207 26.6265 40.7209 24.903 39.7487 23.3127C35.1976 15.8011 30.2488 11.2499 22.6491 6.78696C21.014 5.85922 19.0699 5.4615 16.9932 4.97566C15.8889 4.93122 14.7839 4.84309 13.6794 4.79865C12.9724 4.48931 12.2653 3.64995 11.6466 3.25223C9.12855 1.66138 2.6328 -1.78472 0.777055 2.76639C-0.416088 5.63827 2.54467 8.46595 3.56055 9.92449C4.31229 10.9406 5.28398 12.0893 5.81426 13.2383C6.1236 13.989 6.21172 14.7849 6.52106 15.5801C7.22836 17.5237 7.89071 19.6893 8.81896 21.5011C9.30506 22.4289 9.83509 23.4008 10.4538 24.2404C10.8073 24.7263 11.4257 24.9475 11.5585 25.7426C10.9401 26.6265 10.8957 27.9522 10.5419 29.0567C8.95128 34.0497 9.5702 40.2356 11.8234 43.9029C12.5302 45.0072 14.2094 47.4381 16.4629 46.5099C18.4515 45.7147 18.0096 43.1961 18.5835 40.9868C18.7166 40.456 18.6282 40.103 18.8931 39.7495V39.8381C19.5118 41.075 20.1302 42.2684 20.7047 43.5054C22.0746 45.6703 24.4604 47.924 26.4487 49.4265C27.5095 50.2214 28.3489 51.5913 29.6746 52.0774V51.9446H29.5859C29.3208 51.5468 28.9231 51.3703 28.5698 51.0607C27.7746 50.2658 26.8906 49.2936 26.2722 48.4098C24.4167 45.9352 22.7814 43.1959 21.3233 40.3679C20.6166 38.9985 19.9976 37.496 19.4234 36.1264C19.158 35.5956 19.158 34.8007 18.7164 34.5358C18.0535 35.5077 17.0816 36.3473 16.5955 37.5402C15.7564 39.4402 15.6677 41.782 15.3584 44.212C15.1816 44.2567 15.2698 44.212 15.1814 44.3009C13.7678 43.9468 13.2817 42.4891 12.7512 41.2517C11.4254 38.1147 11.2045 33.0775 12.3537 29.4544C12.663 28.5264 13.9887 25.6103 13.4585 24.7265C13.1933 23.8869 12.3092 23.4008 11.8234 22.7382C11.2492 21.8986 10.6303 20.8385 10.2328 19.9103C9.17223 17.4359 8.64194 14.6963 7.49325 12.2219C6.96296 11.0729 6.03547 9.8803 5.28398 8.81973C4.44461 7.62684 3.51661 6.78696 2.85375 5.37312C2.63306 4.88728 2.32347 4.09185 2.67699 3.56157C2.76537 3.20804 2.94188 3.07573 3.29566 2.98734C3.87014 2.501 5.50518 3.11966 6.07915 3.38481C7.7142 4.04715 9.08385 4.66633 10.4538 5.59408C11.0722 6.03598 11.735 6.8756 12.5302 7.09655H13.4582C14.8723 7.40563 16.4626 7.18493 17.7884 7.58239C20.1305 8.33338 22.2511 9.43814 24.1513 10.6313C29.9397 14.2986 34.7113 19.5126 37.9372 25.7426C38.4675 26.7585 38.6882 27.687 39.1743 28.7471C40.1025 30.9124 41.2512 33.1217 42.1787 35.2426C43.1067 37.319 43.9903 39.4402 45.316 41.1636C45.9788 42.0911 48.6298 42.5774 49.8229 43.0635C50.7067 43.461 52.0766 43.8148 52.8718 44.3006C54.374 45.2281 55.8762 46.2892 57.2903 47.3051C57.9974 47.8353 60.2064 48.9401 60.3392 49.8237Z" fill="#00A9D8"/>
</svg>
