<svg width="57" height="65" viewBox="0 0 57 65" fill="none" xmlns="http://www.w3.org/2000/svg">
<g clip-path="url(#clip0)">
<path d="M28.5 64.3817C27.6197 64.3817 26.7981 64.1469 26.0352 63.7361L18.2297 59.0998C17.056 58.4543 17.6428 58.2195 17.9949 58.1022C19.5794 57.574 19.8729 57.4566 21.516 56.5174C21.6923 56.4001 21.9271 56.4587 22.1029 56.5761L28.0892 60.1561C28.324 60.2735 28.6174 60.2735 28.7934 60.1561L52.2099 46.5994C52.4447 46.4821 52.562 46.2473 52.562 45.9539V18.8987C52.562 18.6053 52.4447 18.3706 52.2099 18.2532L28.7934 4.75494C28.5587 4.63757 28.2653 4.63757 28.0892 4.75494L4.67275 18.2534C4.43801 18.3708 4.32064 18.6642 4.32064 18.8989V45.9539C4.32064 46.1886 4.43801 46.4821 4.67275 46.5994L11.0699 50.2966C14.5325 52.0571 16.7036 50.0032 16.7036 47.9492V21.2461C16.7036 20.894 16.9973 20.5419 17.4081 20.5419H20.4012C20.7534 20.5419 21.1055 20.8353 21.1055 21.2461V47.949C21.1055 52.5853 18.5818 55.2848 14.1802 55.2848C12.8304 55.2848 11.7741 55.2848 8.78115 53.8177L2.61877 50.2966C1.09295 49.4161 0.153992 47.7729 0.153992 46.0124V18.9576C0.153992 17.1971 1.09295 15.5539 2.61877 14.6734L26.0352 1.11668C27.5024 0.29509 29.4977 0.29509 30.9648 1.11668L54.3813 14.6734C55.9071 15.5537 56.846 17.1968 56.846 18.9576V46.0126C56.846 47.7731 55.9071 49.4163 54.3813 50.2966L30.9648 63.8537C30.2019 64.2058 29.3216 64.3819 28.5 64.3819V64.3817ZM35.7185 45.7776C25.4482 45.7776 23.3355 41.0828 23.3355 37.092C23.3355 36.7399 23.6289 36.3878 24.0397 36.3878H27.0913C27.4435 36.3878 27.7371 36.6225 27.7371 36.9746C28.2066 40.0849 29.5563 41.611 35.7772 41.611C40.707 41.611 42.8198 40.4959 42.8198 37.8551C42.8198 36.3291 42.233 35.2141 34.5448 34.4509C28.1479 33.8054 24.1571 32.397 24.1571 27.2914C24.1571 22.5374 28.1477 19.7205 34.8382 19.7205C42.3501 19.7205 46.0475 22.3027 46.517 27.9367C46.517 28.1127 46.4583 28.2888 46.341 28.4648C46.2236 28.5822 46.0475 28.6996 45.8715 28.6996H42.8198C42.5262 28.6996 42.233 28.4648 42.1741 28.1714C41.4699 24.9437 39.6506 23.8874 34.8382 23.8874C29.4392 23.8874 28.7934 25.7653 28.7934 27.1738C28.7934 28.8759 29.5563 29.4038 36.8335 30.3428C44.0522 31.2817 47.456 32.6317 47.456 37.6788C47.3973 42.8434 43.172 45.7776 35.7185 45.7776Z" fill="#539E43"/>
</g>
<defs>
<clipPath id="clip0">
<rect width="56.692" height="64" fill="white" transform="translate(0.153992 0.5)"/>
</clipPath>
</defs>
</svg>
