<svg width="57" height="55" viewBox="0 0 57 55" fill="none" xmlns="http://www.w3.org/2000/svg">
<path d="M2.834 2.53395H54.166V52.466H2.834V2.53395ZM0.5 54.7999H56.5V0.199951H0.5V54.7999ZM38.254 22.6C36.41 22.6 35.78 23.534 35.78 24.304C35.78 25.144 36.2 25.728 38.674 27.01C42.338 28.784 43.474 30.486 43.474 32.984C43.474 36.718 40.628 38.7239 36.778 38.7239C35.1257 38.7852 33.4834 38.4419 31.994 37.7239C31.83 37.6539 31.808 37.5379 31.808 37.3499V33.916C31.808 33.6819 31.924 33.6119 32.088 33.7299C33.4868 34.6294 35.115 35.1071 36.778 35.1059C38.622 35.1059 39.392 34.3359 39.392 33.2859C39.392 32.4459 38.856 31.7 36.498 30.486C33.184 28.9 31.808 27.286 31.808 24.606C31.808 21.596 34.164 19.1 38.248 19.1C39.6696 19.0389 41.0891 19.2612 42.424 19.754C42.5009 19.8038 42.5631 19.8733 42.6042 19.9552C42.6453 20.0371 42.6639 20.1285 42.658 20.22V23.42C42.658 23.606 42.542 23.7239 42.308 23.6539C41.0743 22.9437 39.6713 22.5809 38.248 22.604L38.254 22.6ZM18.186 25.3759C18.722 25.4219 19.142 25.422 20.076 25.422C22.806 25.422 25.372 24.466 25.372 20.756C25.372 17.792 23.528 16.2999 20.426 16.2999C19.492 16.2999 18.606 16.346 18.186 16.37V25.3759ZM14.032 12.976C14.032 12.812 14.358 12.696 14.546 12.696C16.5516 12.614 18.5587 12.5753 20.566 12.58C27.03 12.58 29.55 16.1259 29.55 20.6539C29.55 26.58 25.256 29.124 19.984 29.124C19.098 29.124 18.794 29.0779 18.164 29.0779V38.0379C18.164 38.2239 18.094 38.318 17.884 38.318H14.314C14.128 38.318 14.034 38.2479 14.034 38.0379V12.986L14.032 12.976Z" fill="#31C5F0"/>
</svg>
