<svg width="64" height="65" viewBox="0 0 64 65" fill="none" xmlns="http://www.w3.org/2000/svg">
<path d="M32 47.23C47.464 47.23 60 40.6352 60 32.5C60 24.3649 47.464 17.77 32 17.77C16.536 17.77 4 24.3649 4 32.5C4 40.6352 16.536 47.23 32 47.23Z" fill="url(#paint0_radial)"/>
<path d="M32 46.136C46.8598 46.136 58.906 40.031 58.906 32.5C58.906 24.9691 46.8598 18.864 32 18.864C17.1402 18.864 5.09399 24.9691 5.09399 32.5C5.09399 40.031 17.1402 46.136 32 46.136Z" fill="#6280B6"/>
<path d="M37.45 36.9L38.784 30.032C38.974 29.4442 39.0053 28.8167 38.8747 28.2129C38.744 27.6091 38.456 27.0506 38.04 26.594C36.8786 25.7694 35.4566 25.3961 34.04 25.544H31.734L32.396 22.144C32.408 22.0807 32.406 22.0155 32.39 21.9531C32.3739 21.8907 32.3443 21.8326 32.3033 21.7829C32.2622 21.7332 32.2107 21.6932 32.1524 21.6658C32.0941 21.6383 32.0304 21.6241 31.966 21.624H28.766C28.6644 21.624 28.5659 21.6593 28.4875 21.7239C28.409 21.7885 28.3555 21.8783 28.336 21.978L26.918 29.27C26.8089 28.4904 26.4777 27.7586 25.964 27.162C25.392 26.5892 24.7021 26.1481 23.9421 25.8693C23.1822 25.5906 22.3706 25.4809 21.564 25.548H15.4C15.2984 25.548 15.1999 25.5833 15.1215 25.6479C15.043 25.7125 14.9895 25.8023 14.97 25.902L12.102 40.662C12.0899 40.7253 12.092 40.7905 12.108 40.8529C12.124 40.9154 12.1536 40.9735 12.1947 41.0231C12.2358 41.0728 12.2873 41.1128 12.3456 41.1403C12.4039 41.1677 12.4675 41.182 12.532 41.182H15.738C15.8396 41.1821 15.9381 41.1468 16.0165 41.0822C16.0949 41.0176 16.1485 40.9277 16.168 40.828L16.862 37.258H19.262C20.3216 37.2863 21.3794 37.1514 22.398 36.858C23.2569 36.5739 24.0423 36.1033 24.698 35.48C25.2353 34.9905 25.694 34.4212 26.058 33.792L25.484 36.742C25.4719 36.8053 25.474 36.8705 25.49 36.9329C25.506 36.9954 25.5356 37.0535 25.5767 37.1031C25.6178 37.1528 25.6693 37.1928 25.7276 37.2203C25.7859 37.2477 25.8495 37.262 25.914 37.262H29.114C29.2156 37.2621 29.3141 37.2268 29.3925 37.1622C29.4709 37.0976 29.5245 37.0077 29.544 36.908L31.118 28.806H33.306C34.238 28.806 34.506 28.992 34.586 29.072C34.666 29.152 34.786 29.402 34.636 30.21L33.366 36.74C33.3539 36.8033 33.356 36.8685 33.372 36.9309C33.388 36.9934 33.4176 37.0515 33.4587 37.1011C33.4998 37.1508 33.5513 37.1908 33.6096 37.2183C33.6679 37.2457 33.7315 37.26 33.796 37.26H37.036C37.1357 37.2561 37.231 37.2183 37.3063 37.1529C37.3816 37.0874 37.4323 36.9982 37.45 36.9ZM22.66 31.232C22.5622 32.0717 22.1636 32.8475 21.538 33.416C20.7521 33.9048 19.8307 34.1298 18.908 34.058H17.484L18.514 28.756H20.356C21.71 28.756 22.254 29.046 22.474 29.288C22.6418 29.5801 22.7452 29.9046 22.7773 30.2399C22.8094 30.5752 22.7694 30.9135 22.66 31.232Z" fill="white"/>
<path d="M51.092 27.164C50.5201 26.5912 49.8301 26.15 49.0702 25.8713C48.3103 25.5925 47.4987 25.4829 46.692 25.55H40.51C40.4084 25.5499 40.31 25.5852 40.2315 25.6498C40.1531 25.7144 40.0995 25.8043 40.08 25.904L37.212 40.664C37.2 40.7273 37.202 40.7925 37.218 40.8549C37.2341 40.9173 37.2637 40.9754 37.3047 41.0251C37.3458 41.0748 37.3973 41.1148 37.4556 41.1422C37.5139 41.1697 37.5776 41.1839 37.642 41.184H40.858C40.9596 41.184 41.0581 41.1487 41.1365 41.0841C41.215 41.0195 41.2685 40.9297 41.288 40.83L41.982 37.26H44.382C45.4417 37.2883 46.4994 37.1534 47.518 36.86C48.3769 36.5758 49.1623 36.1052 49.818 35.482C50.941 34.47 51.6976 33.1149 51.97 31.628C52.1852 30.8673 52.2178 30.0666 52.0653 29.2909C51.9127 28.5152 51.5793 27.7865 51.092 27.164ZM47.758 31.232C47.6602 32.0716 47.2616 32.8475 46.636 33.416C45.8483 33.9053 44.9245 34.1296 44 34.056H42.58L43.61 28.754H45.452C46.806 28.754 47.35 29.044 47.57 29.286C47.7385 29.5781 47.8424 29.903 47.8748 30.2386C47.9072 30.5743 47.8674 30.913 47.758 31.232Z" fill="white"/>
<path d="M20.356 28.316C20.7875 28.2617 21.2255 28.2935 21.6447 28.4095C22.0638 28.5255 22.4558 28.7235 22.798 28.992C23.0188 29.3319 23.1596 29.7175 23.2098 30.1197C23.26 30.5219 23.2184 30.9303 23.088 31.314C22.9736 32.259 22.5168 33.1292 21.804 33.76C20.9442 34.3138 19.928 34.5735 18.908 34.5H16.952L18.152 28.322L20.356 28.316ZM12.522 40.748H15.738L16.5 36.824H19.254C20.2677 36.8517 21.2796 36.7228 22.254 36.442C23.0537 36.178 23.7846 35.7394 24.394 35.158C25.4487 34.2093 26.1591 32.9376 26.414 31.542C26.6158 30.848 26.6513 30.1163 26.5175 29.406C26.3837 28.6958 26.0844 28.027 25.644 27.454C25.1129 26.9287 24.4735 26.5255 23.7706 26.2727C23.0677 26.0198 22.318 25.9234 21.574 25.99H15.4L12.522 40.748Z" fill="#000004"/>
<path d="M28.774 22.064H31.974L31.2 25.988H34.042C35.3473 25.8514 36.6587 26.1832 37.742 26.924C38.1005 27.3316 38.3456 27.8262 38.4527 28.3584C38.5598 28.8906 38.525 29.4415 38.352 29.956L37.018 36.824H33.78L35.05 30.294C35.1384 30.0448 35.17 29.7789 35.1423 29.5159C35.1146 29.2529 35.0284 28.9994 34.89 28.774C34.4269 28.4422 33.8548 28.2992 33.29 28.374H30.74L29.096 36.83H25.896L28.774 22.064Z" fill="#000004"/>
<path d="M45.4541 28.316C45.8856 28.2617 46.3236 28.2935 46.7427 28.4095C47.1619 28.5255 47.5539 28.7235 47.8961 28.992C48.1168 29.3319 48.2576 29.7175 48.3079 30.1197C48.3581 30.5219 48.3165 30.9303 48.1861 31.314C48.0717 32.259 47.6149 33.1292 46.9021 33.76C46.0406 34.315 45.0221 34.5748 44.0001 34.5H42.0441L43.2441 28.322L45.4541 28.316ZM37.6201 40.748H40.8361L41.5981 36.824H44.3521C45.3658 36.8517 46.3776 36.7228 47.3521 36.442C48.1518 36.178 48.8827 35.7394 49.4921 35.158C50.5468 34.2093 51.2571 32.9376 51.5121 31.542C51.7139 30.848 51.7493 30.1163 51.6156 29.406C51.4818 28.6958 51.1825 28.027 50.7421 27.454C50.2109 26.9287 49.5716 26.5255 48.8687 26.2727C48.1657 26.0198 47.4161 25.9234 46.6721 25.99H40.4881L37.6201 40.748Z" fill="#000004"/>
<defs>
<radialGradient id="paint0_radial" cx="0" cy="0" r="1" gradientUnits="userSpaceOnUse" gradientTransform="translate(20.812 22.95) scale(36.768)">
<stop stop-color="white"/>
<stop offset="0.5" stop-color="#4C6B96"/>
<stop offset="1" stop-color="#231F20"/>
</radialGradient>
</defs>
</svg>
