<svg width="64" height="62" viewBox="0 0 64 62" fill="none" xmlns="http://www.w3.org/2000/svg">
<path d="M52.94 9.4C50.3178 5.80197 46.4518 3.30711 42.093 2.40009C37.7342 1.49307 33.1938 2.23866 29.354 4.49201L15.92 12.8C14.1193 13.8852 12.5682 15.3386 11.3684 17.065C10.1687 18.7915 9.34723 20.752 8.95799 22.818C8.31931 26.2738 8.884 29.844 10.558 32.934C9.4108 34.6209 8.62688 36.528 8.25599 38.534C7.87422 40.6282 7.92571 42.7785 8.40729 44.852C8.88887 46.9256 9.79032 48.8784 11.056 50.59C13.6783 54.1884 17.544 56.6841 21.9029 57.5925C26.2617 58.5009 30.8026 57.7573 34.644 55.506L48.08 47.2C49.8801 46.1142 51.4307 44.6605 52.6304 42.9342C53.8302 41.2079 54.6519 39.2478 55.042 37.182C55.6847 33.7237 55.1199 30.1496 53.442 27.058C54.5904 25.3715 55.3751 23.4644 55.746 21.458C56.1277 19.3631 56.0756 17.2121 55.593 15.1381C55.1103 13.0641 54.2074 11.1112 52.94 9.4Z" fill="#FF3E00"/>
<path d="M28.044 51.28C25.9435 51.8187 23.7295 51.7142 21.6891 50.98C19.6486 50.2457 17.8757 48.9156 16.6 47.162C15.8361 46.134 15.2915 44.9601 14.9997 43.713C14.708 42.4659 14.6754 41.1722 14.904 39.912C14.9801 39.4981 15.0864 39.0904 15.222 38.692L15.476 37.942L16.164 38.418C17.7611 39.5555 19.5378 40.4168 21.42 40.966L21.91 41.112L21.86 41.586C21.8024 42.2755 21.9948 42.9627 22.402 43.522C22.7848 44.0634 23.3235 44.4751 23.9464 44.7024C24.5692 44.9297 25.2465 44.9616 25.888 44.794C26.1778 44.7187 26.4548 44.6007 26.71 44.444L40.11 36.136C40.4363 35.9382 40.7175 35.6742 40.9356 35.3611C41.1536 35.048 41.3036 34.6927 41.376 34.318C41.4481 33.9403 41.442 33.5518 41.358 33.1765C41.2741 32.8012 41.1141 32.4471 40.888 32.136C40.5032 31.607 39.9685 31.2056 39.3531 30.9838C38.7376 30.762 38.0698 30.73 37.436 30.892C37.1447 30.9675 36.8662 31.0861 36.61 31.244L31.466 34.412C30.6205 34.9352 29.7008 35.3277 28.738 35.576C26.6358 36.1161 24.4198 36.0121 22.3774 35.2775C20.335 34.5428 18.5605 33.2114 17.284 31.456C16.5252 30.4247 15.9862 29.2485 15.7003 28.0004C15.4144 26.7523 15.3878 25.4588 15.622 24.2C15.8581 22.96 16.352 21.7833 17.0717 20.7463C17.7914 19.7093 18.7209 18.835 19.8 18.18L33.216 9.87201C34.0616 9.34944 34.9813 8.95768 35.944 8.71001C38.0463 8.1687 40.2628 8.27191 42.3057 9.00625C44.3485 9.74059 46.1235 11.0721 47.4 12.828C48.1638 13.8561 48.7084 15.03 49.0001 16.2771C49.2918 17.5241 49.3245 18.8178 49.096 20.078C49.0202 20.492 48.9139 20.8997 48.778 21.298L48.524 22.048L47.836 21.574C46.2398 20.435 44.4629 19.5736 42.58 19.026L42.09 18.878L42.14 18.404C42.1975 17.7142 42.0044 17.0269 41.596 16.468C41.2123 15.9383 40.678 15.5363 40.0627 15.3145C39.4473 15.0926 38.7795 15.0611 38.146 15.224C37.8558 15.2992 37.5787 15.4178 37.324 15.576L23.88 23.856C23.5536 24.0528 23.2725 24.3163 23.055 24.6292C22.8375 24.9422 22.6886 25.2975 22.618 25.672C22.5441 26.05 22.5493 26.4392 22.6333 26.8151C22.7173 27.191 22.8782 27.5454 23.106 27.856C23.4911 28.3847 24.0259 28.7857 24.6413 29.0071C25.2567 29.2285 25.9244 29.2602 26.558 29.098C26.849 29.0223 27.1273 28.9044 27.384 28.748L32.508 25.578C33.3531 25.0546 34.273 24.6627 35.236 24.416C37.3383 23.8758 39.5544 23.9796 41.5971 24.7138C43.6397 25.4481 45.4147 26.779 46.692 28.534C47.4538 29.563 47.9965 30.7372 48.2865 31.9843C48.5765 33.2313 48.6076 34.5245 48.378 35.784C48.1436 37.0254 47.6504 38.2036 46.9305 39.2418C46.2107 40.28 45.2803 41.1551 44.2 41.81L30.786 50.118C29.9409 50.6415 29.021 51.0333 28.058 51.28" fill="white"/>
</svg>
