<svg width="70" height="65" viewBox="0 0 70 65" fill="none" xmlns="http://www.w3.org/2000/svg">
<path d="M60.2763 0.5H9.99063C7.56661 0.502647 5.24263 1.46676 3.52858 3.1808C1.81454 4.89485 0.850425 7.21883 0.847778 9.64286V55.3571C0.850425 57.7812 1.81454 60.1052 3.52858 61.8192C5.24263 63.5332 7.56661 64.4974 9.99063 64.5H60.2763C62.7004 64.4974 65.0244 63.5332 66.7384 61.8192C68.4524 60.1052 69.4166 57.7812 69.4192 55.3571V9.64286C69.4166 7.21883 68.4524 4.89485 66.7384 3.1808C65.0244 1.46676 62.7004 0.502647 60.2763 0.5ZM12.2763 32.5C11.8028 32.5 11.3409 32.3529 10.9546 32.0791C10.5682 31.8052 10.2765 31.4181 10.1196 30.9713C9.96279 30.5245 9.94861 30.0399 10.0791 29.5847C10.2095 29.1295 10.4781 28.726 10.8478 28.43L20.0463 21.0714L10.8478 13.7129C10.6133 13.5253 10.418 13.2933 10.2732 13.0302C10.1283 12.7672 10.0367 12.4782 10.0035 12.1797C9.97034 11.8812 9.99629 11.5791 10.0799 11.2907C10.1635 11.0022 10.303 10.7331 10.4906 10.4986C10.6782 10.2641 10.9102 10.0688 11.1733 9.92395C11.4363 9.77909 11.7253 9.68746 12.0238 9.6543C12.3223 9.62114 12.6244 9.64709 12.9128 9.73067C13.2013 9.81425 13.4704 9.95383 13.7049 10.1414L25.1335 19.2843C25.4015 19.4984 25.6178 19.7701 25.7665 20.0792C25.9152 20.3884 25.9924 20.727 25.9924 21.07C25.9924 21.413 25.9152 21.7516 25.7665 22.0608C25.6178 22.3699 25.4015 22.6416 25.1335 22.8557L13.7049 31.9986C13.2995 32.3232 12.7957 32.5 12.2763 32.5ZM35.1335 32.5H25.9906C25.3844 32.5 24.803 32.2592 24.3744 31.8305C23.9457 31.4019 23.7049 30.8205 23.7049 30.2143C23.7049 29.6081 23.9457 29.0267 24.3744 28.598C24.803 28.1694 25.3844 27.9286 25.9906 27.9286H35.1335C35.7397 27.9286 36.3211 28.1694 36.7497 28.598C37.1784 29.0267 37.4192 29.6081 37.4192 30.2143C37.4192 30.8205 37.1784 31.4019 36.7497 31.8305C36.3211 32.2592 35.7397 32.5 35.1335 32.5Z" fill="black"/>
</svg>
