<svg width="23" height="19" viewBox="0 0 23 19" fill="none" xmlns="http://www.w3.org/2000/svg">
<path d="M6.96654 18.4383C8.65568 18.4489 10.3301 18.1241 11.8927 17.4825C13.4554 16.841 14.875 15.8957 16.0695 14.7012C17.2639 13.5068 18.2093 12.0871 18.8508 10.5245C19.4923 8.96188 19.8172 7.28744 19.8065 5.5983V5.0083C20.6821 4.36678 21.44 3.57847 22.0465 2.6783C21.2221 3.03889 20.3496 3.27805 19.4565 3.3883C20.4035 2.82408 21.1139 1.93596 21.4565 0.888296C20.5741 1.41774 19.6064 1.78993 18.5965 1.9883C17.9165 1.26366 17.0165 0.783352 16.036 0.621682C15.0555 0.460012 14.049 0.625995 13.1723 1.09395C12.2956 1.5619 11.5975 2.30574 11.1861 3.21037C10.7748 4.115 10.673 5.12999 10.8965 6.0983C9.10256 6.01024 7.34725 5.54532 5.7449 4.7338C4.14254 3.92229 2.72908 2.78238 1.59654 1.3883C1.02546 2.37947 0.852366 3.55062 1.1123 4.66462C1.37223 5.77862 2.04577 6.75222 2.99654 7.3883C2.29515 7.36125 1.60999 7.1694 0.996539 6.8283V6.8783C0.990306 7.91413 1.33926 8.92081 1.98524 9.73057C2.63122 10.5403 3.53521 11.1042 4.54654 11.3283C3.89418 11.5038 3.21083 11.5311 2.54654 11.4083C2.83932 12.2917 3.39822 13.0629 4.14659 13.6161C4.89495 14.1693 5.79613 14.4775 6.72654 14.4983C5.13575 15.7788 3.15863 16.4837 1.11654 16.4983C0.758493 16.4879 0.401286 16.4579 0.0465393 16.4083C2.11349 17.7252 4.51574 18.4195 6.96654 18.4083" fill="#00B2FF"/>
</svg>
